<!-- Generator: Adobe Illustrator 24.0.3, SVG Export Plug-In  -->
<svg version="1.1" xmlns="http://www.w3.org/2000/svg" xmlns:xlink="http://www.w3.org/1999/xlink" x="0px" y="0px" width="281.6px"
	 height="99.8px" viewBox="0 0 281.6 99.8" style="enable-background:new 0 0 281.6 99.8;" xml:space="preserve">
<defs>
</defs>
<g>
	<g>
		<path d="M0,83.6h188.1v16.2H0V83.6z"/>
	</g>
	<g>
		<path d="M198.9,83.6h82.7v16.2h-82.7V83.6z"/>
	</g>
	<g>
		<path d="M1.1,16.5C3.6,4.5,11.7,0,22.7,0s19.1,4.5,21.6,16.5c0.8,3.8,1.1,10.4,1.1,21.8c0,11.3-0.3,18-1.1,21.8
			c-2.5,12-10.5,16.5-21.6,16.5S3.6,72,1.1,60C0.3,56.2,0,49.6,0,38.3C0,26.9,0.3,20.3,1.1,16.5z M18.2,55.1c0,4.4,1.9,6.2,4.5,6.2
			s4.5-1.8,4.5-6.2V21.5c0-4.4-1.9-6.2-4.5-6.2s-4.5,1.8-4.5,6.2V55.1z"/>
		<path d="M68.4,55.1c0,4.4,1.9,6.2,4.5,6.2c2.7,0,4.7-1.8,4.7-6.2v-13L95,46.7c-0.1,9.7-0.5,10.9-1.3,14.8
			c-2.3,10.7-11.1,15.1-21.4,15.1c-17.5,0-22.7-10.7-22.7-38.3C49.6,10.7,54.8,0,72.3,0c10.2,0,18.8,4.2,21.4,14.6
			c0.8,3.6,1.2,4.3,1.3,13.2l-17.3,4.6V21.5c0-4.4-2.1-6.2-4.7-6.2c-2.7,0-4.5,1.8-4.5,6.2V55.1z"/>
		<path d="M143.3,75.3h-16.5l-1.4-9.3h-10.5l-1.4,9.3H96.9l12.8-74.1h20.8L143.3,75.3z M115.8,51.6h8.7l-4.3-30.4h-0.2L115.8,51.6z"
			/>
		<path d="M147.3,1.2h17.5c19.6,0,25.6,5,25.6,37c0,28.4-4.2,37-25.6,37h-17.5V1.2z M164.7,61.1c7.8,0,8.5-2.8,8.5-16.3V31.4
			c0-13.5-0.6-16.3-8.5-16.3V61.1z"/>
		<path d="M198.9,75.3V1.2h39v15.3h-21.7v13.4h17.3v15.9h-17.3v29.5H198.9z"/>
		<path d="M281.6,75.3H265l-1.4-9.3h-10.5l-1.4,9.3h-16.5l12.8-74.1h20.8L281.6,75.3z M254,51.6h8.7l-4.3-30.4h-0.2L254,51.6z"/>
	</g>
</g>
</svg>
